<svg xmlns="http://www.w3.org/2000/svg" viewBox="0 0 359.24 399.34"><defs><style>.cls-1{fill:#2da44e;}</style></defs><g id="Camada_69" data-name="Camada 69"><path class="cls-1" d="M404.61,131.86,275,57a50,50,0,0,0-50,0L95.39,131.86a50,50,0,0,0-25,43.31V324.83a50,50,0,0,0,25,43.31L225,443a50,50,0,0,0,50,0l129.6-74.83a50,50,0,0,0,25-43.31V175.17A50,50,0,0,0,404.61,131.86ZM325,250a25,25,0,0,1-25,25H200a25,25,0,0,1-25-25h0a25,25,0,0,1,25-25H300a25,25,0,0,1,25,25Z" transform="translate(-70.38 -50.33)"/></g></svg>