<?xml version="1.0" encoding="utf-8"?>
<!-- Generator: Adobe Illustrator 24.3.0, SVG Export Plug-In . SVG Version: 6.00 Build 0)  -->
<svg version="1.1" xmlns="http://www.w3.org/2000/svg" xmlns:xlink="http://www.w3.org/1999/xlink" x="0px" y="0px"
	 viewBox="0 0 500 500" style="enable-background:new 0 0 500 500;" xml:space="preserve">
<style type="text/css">
	.st0{display:none;}
	.st1{display:inline;fill:#FF9CC4;}
	.st2{display:inline;fill:#0969DA;}
	.st3{display:inline;}
	.st4{fill:#2DA44E;}
</style>
<g id="Camada_1" class="st0">
	<rect class="st1" width="500" height="500"/>
</g>
<g id="Camada_11" class="st0">
	<rect x="0.9" y="-0.9" class="st1" width="500" height="500"/>
</g>
<g id="Camada_55" class="st0">
	<path class="st2" d="M250.2,49.7c-110.5,0-200,89.5-200,200s89.5,200,200,200s200-89.5,200-200S360.6,49.7,250.2,49.7z
		 M314.1,278.1c0,19.3-15.7,35-35,35h-56.9c-19.3,0-35-15.7-35-35v-56.9c0-19.3,15.7-35,35-35H279c19.3,0,35,15.7,35,35V278.1z"/>
</g>
<g id="Camada_3" class="st0">
</g>
<g id="Camada_12">
	<g id="Camada__x28_50_x29_">
	</g>
</g>
<g id="Camada_14">
</g>
<g id="Camada_13">
</g>
<g id="Camada_5">
</g>
<g id="CPP__x28_50px_x29_" class="st0">
	<path class="st2" d="M249,49.8C139.4,50.4,50.7,139.1,50.1,248.7C49.5,358.9,141,450.4,251.2,449.8
		c109.6-0.6,198.3-89.3,198.9-198.9C450.7,140.7,359.2,49.2,249,49.8z M317.9,267.6c0,27.6-22.4,50-50,50h-35.7
		c-27.6,0-50-22.4-50-50V232c0-27.6,22.4-50,50-50h35.7c27.6,0,50,22.4,50,50V267.6z"/>
</g>
<g id="CMM__x28_50px_x29_" class="st0">
	<path class="st2" d="M248.9,49.6C139.3,50.2,50.6,138.9,50,248.5C49.4,358.7,141,450.2,251.2,449.6
		C360.7,449,449.4,360.3,450,250.7C450.6,140.5,359.1,49,248.9,49.6z M328.6,278.2c0,27.6-22.4,50-50,50h-57.2
		c-27.6,0-50-22.4-50-50V221c0-27.6,22.4-50,50-50h57.2c27.6,0,50,22.4,50,50V278.2z"/>
</g>
<g id="CMG__x28_50px_x29_" class="st0">
	<path class="st2" d="M248.9,49.6C139.3,50.2,50.6,138.9,50,248.5C49.4,358.7,141,450.2,251.2,449.6
		C360.7,449,449.4,360.3,450,250.7C450.6,140.5,359.1,49,248.9,49.6z M334.5,284.1c0,27.6-22.4,50-50,50h-69c-27.6,0-50-22.4-50-50
		v-69c0-27.6,22.4-50,50-50h69c27.6,0,50,22.4,50,50V284.1z"/>
</g>
<g id="CGG__x28_50px_x29_" class="st0">
	<path class="st2" d="M249.2,49.6C139.6,50.2,50.9,138.9,50.3,248.5c-0.6,110.2,90.9,201.7,201.1,201.1
		C361,449,449.7,360.3,450.3,250.7C450.9,140.5,359.4,49,249.2,49.6z M340.4,289.8c0,27.6-22.4,50-50,50h-80.4
		c-27.6,0-50-22.4-50-50v-80.4c0-27.6,22.4-50,50-50h80.4c27.6,0,50,22.4,50,50V289.8z"/>
</g>
<g id="_x2D_--------------">
</g>
<g id="Camada_21">
</g>
<g id="Camada_16">
</g>
<g id="Camada_23">
</g>
<g id="Camada_24">
</g>
<g id="Camada_25">
	<g id="Base__x28_80px_x29_">
	</g>
</g>
<g id="Camada_26" class="st0">
</g>
<g id="YPP__x28_50px_x29_" class="st0">
	<g class="st3">
		<path class="st4" d="M405.6,128.6L291,62.5c-24.8-14.3-55.3-14.3-80,0L96.3,128.6c-15.5,8.9-25,25.4-25,43.3v149.7
			c0,17.9,9.5,34.4,25,43.3l129.6,74.8c15.5,8.9,34.5,8.9,50,0l129.6-74.8c15.5-8.9,25-25.4,25-43.3V172
			C430.6,154.1,421,137.6,405.6,128.6z M311.5,284.4l-25.2,25.2c-19.5,19.5-51.1,19.5-70.7,0l-25.2-25.2
			c-19.5-19.5-19.5-51.1,0-70.7l25.2-25.2c19.5-19.5,51.1-19.5,70.7,0l25.2,25.2C331,233.3,331,264.9,311.5,284.4z"/>
	</g>
</g>
<g id="YMM__x28_50px_x29_" class="st0">
	<g class="st3">
		<path class="st4" d="M405.6,128.6L291,62.5c-24.8-14.3-55.3-14.3-80,0L96.3,128.6c-15.5,8.9-25,25.4-25,43.3v149.7
			c0,17.9,9.5,34.4,25,43.3l129.6,74.8c15.5,8.9,34.5,8.9,50,0l129.6-74.8c15.5-8.9,25-25.4,25-43.3V172
			C430.6,154.1,421,137.6,405.6,128.6z M326.7,284.4l-40.4,40.4c-19.5,19.5-51.1,19.5-70.7,0l-40.4-40.4
			c-19.5-19.5-19.5-51.1,0-70.7l40.4-40.4c19.5-19.5,51.1-19.5,70.7,0l40.4,40.4C346.2,233.3,346.2,264.9,326.7,284.4z"/>
	</g>
</g>
<g id="YMG__x28_50px_x29_" class="st0">
	<g class="st3">
		<path class="st4" d="M405.6,128.6L291,62.5c-24.8-14.3-55.3-14.3-80,0L96.3,128.6c-15.5,8.9-25,25.4-25,43.3v149.7
			c0,17.9,9.5,34.4,25,43.3l129.6,74.8c15.5,8.9,34.5,8.9,50,0l129.6-74.8c15.5-8.9,25-25.4,25-43.3V172
			C430.6,154.1,421,137.6,405.6,128.6z M335.1,284.4l-48.8,48.8c-19.5,19.5-51.1,19.5-70.7,0l-48.8-48.8
			c-19.5-19.5-19.5-51.1,0-70.7l48.8-48.8c19.5-19.5,51.1-19.5,70.7,0l48.8,48.8C354.6,233.3,354.6,264.9,335.1,284.4z"/>
	</g>
</g>
<g id="YGG__x28_50px_x29_" class="st0">
	<g class="st3">
		<path class="st4" d="M405.6,128.6L291,62.5c-24.8-14.3-55.3-14.3-80,0L96.3,128.6c-15.5,8.9-25,25.4-25,43.3v149.7
			c0,17.9,9.5,34.4,25,43.3l129.6,74.8c15.5,8.9,34.5,8.9,50,0l129.6-74.8c15.5-8.9,25-25.4,25-43.3V172
			C430.6,154.1,421,137.6,405.6,128.6z M343.1,284.4l-56.8,56.8c-19.5,19.5-51.1,19.5-70.7,0l-56.8-56.8
			c-19.5-19.5-19.5-51.1,0-70.7l56.8-56.8c19.5-19.5,51.1-19.5,70.7,0l56.8,56.8C362.6,233.3,362.6,264.9,343.1,284.4z"/>
	</g>
</g>
<g id="_x2D_----------" class="st0">
</g>
<g id="Camada_27">
</g>
</svg>
