<svg xmlns="http://www.w3.org/2000/svg" viewBox="0 0 359.24 394.69"><defs><style>.cls-1{fill:#2da44e;}</style></defs><g id="YPP_50px_" data-name="YPP (50px)"><path class="cls-1" d="M405.56,128.65,291,62.49a80,80,0,0,0-80.05,0L96.34,128.65a50,50,0,0,0-25,43.31V321.62a50,50,0,0,0,25,43.31l129.6,74.83a50,50,0,0,0,50,0l129.6-74.83a50,50,0,0,0,25-43.31V172A50,50,0,0,0,405.56,128.65ZM311.5,284.44l-25.23,25.23a50,50,0,0,1-70.65,0l-25.23-25.23a50,50,0,0,1,0-70.65l25.23-25.23a50,50,0,0,1,70.65,0l25.23,25.23A50,50,0,0,1,311.5,284.44Z" transform="translate(-71.33 -51.77)"/></g></svg>