<svg width="107" height="107" viewBox="0 0 107 107" fill="none" xmlns="http://www.w3.org/2000/svg">
<g id="ep:arrow-up-bold">
<path id="Vector" d="M71.603 10.9407C72.8567 12.1948 73.561 13.8955 73.561 15.6688C73.561 17.4421 72.8567 19.1428 71.603 20.3969L38.4999 53.5L71.603 86.6031C72.8212 87.8644 73.4952 89.5537 73.48 91.3071C73.4648 93.0606 72.7614 94.7379 71.5215 95.9778C70.2816 97.2177 68.6043 97.921 66.8509 97.9363C65.0974 97.9515 63.4081 97.2774 62.1469 96.0592L24.3157 58.2281C23.062 56.974 22.3577 55.2733 22.3577 53.5C22.3577 51.7267 23.062 50.026 24.3157 48.7719L62.1469 10.9408C63.401 9.68704 65.1016 8.98274 66.8749 8.98274C68.6482 8.98274 70.3489 9.68704 71.603 10.9407Z" fill="#ffff"/>
</g>
</svg>
