<svg width="107" height="107" viewBox="0 0 107 107" fill="none" xmlns="http://www.w3.org/2000/svg">
<g id="ep:arrow-up-bold">
<path id="Vector" d="M35.397 10.9407C34.1433 12.1948 33.439 13.8955 33.439 15.6688C33.439 17.4421 34.1433 19.1428 35.397 20.3969L68.5001 53.5L35.397 86.6031C34.1788 87.8644 33.5048 89.5537 33.52 91.3071C33.5352 93.0606 34.2386 94.7379 35.4785 95.9778C36.7184 97.2177 38.3957 97.921 40.1491 97.9363C41.9026 97.9515 43.5919 97.2774 44.8531 96.0592L82.6843 58.2281C83.938 56.974 84.6423 55.2733 84.6423 53.5C84.6423 51.7267 83.938 50.026 82.6843 48.7719L44.8531 10.9408C43.599 9.68704 41.8984 8.98274 40.1251 8.98274C38.3518 8.98274 36.6511 9.68704 35.397 10.9407Z" fill="#ffff"/>
</g>
</svg>
