<svg xmlns="http://www.w3.org/2000/svg" aria-hidden="false" focusable="false" aria-label="TabCash" role="img" viewBox="0 0 359.24 399.34" xmlns:v="https://vecta.io/nano"><path d="M334.23 81.52L204.63 6.7a50 50 0 0 0-50 0L25.03 81.52a50 50 0 0 0-25 43.32v149.65a50 50 0 0 0 25 43.32l129.58 74.8a50 50 0 0 0 50 0l129.62-74.8a50 50 0 0 0 25-43.32V124.84a50 50 0 0 0-25-43.32zM277.64 217.3l-80.39 80.38c-9.74 9.739-25.53 9.739-35.27 0L81.6 217.3c-9.739-9.74-9.739-25.53 0-35.27l80.43-80.42c9.74-9.739 25.53-9.739 35.27 0l80.39 80.38a24.94 24.94 0 0 1-.05 35.31z" fill="#2da44e"/></svg>