<svg xmlns="http://www.w3.org/2000/svg" aria-hidden="false" focusable="false" aria-label="TabCash" role="img" viewBox="0 0 359.24 399.34" xmlns:v="https://vecta.io/nano"><path d="M334.23 81.57L204.63 6.7a50 50 0 0 0-50 0L25.01 81.57a50 50 0 0 0-25 43.31v149.61a50 50 0 0 0 25 43.32l129.6 74.82a50 50 0 0 0 50 0l129.6-74.82a50 50 0 0 0 25-43.32V124.84a50 50 0 0 0-24.98-43.27zm-60.89 162a17.68 17.68 0 0 1-8.84 15.31l-76.05 43.9a17.63 17.63 0 0 1-17.66 0l-76.03-43.9a17.68 17.68 0 0 1-8.86-15.31v-87.81a17.66 17.66 0 0 1 8.84-15.3l76.02-43.89a17.68 17.68 0 0 1 17.66 0l76.05 43.91a17.66 17.66 0 0 1 8.84 15.3z" fill="#2da44e"/></svg>