<svg id="Camada_50_" data-name="Camada (50)" xmlns="http://www.w3.org/2000/svg" viewBox="0 0 400 400"><defs><style>.cls-1{fill:#0969da;}</style></defs><path class="cls-1" d="M248.87,50C139.31,50.61,50.61,139.31,50,248.87,49.39,359.07,140.93,450.61,251.13,450c109.56-.61,198.26-89.31,198.87-198.87C450.61,140.93,359.07,49.39,248.87,50Zm80.92,229.51a50.28,50.28,0,0,1-50.28,50.28h-59a50.28,50.28,0,0,1-50.28-50.28v-59a50.28,50.28,0,0,1,50.28-50.28h59a50.28,50.28,0,0,1,50.28,50.28Z" transform="translate(-50 -50)"/></svg>