<svg xmlns="http://www.w3.org/2000/svg" aria-hidden="false" focusable="false" aria-label="TabCash" role="img" viewBox="0 0 359.24 399.34" xmlns:v="https://vecta.io/nano"><path d="M334.23 81.53L204.63 6.67a50 50 0 0 0-50 0L25.01 81.53a50 50 0 0 0-25 43.31V274.5a50 50 0 0 0 25 43.31l129.61 74.86a50 50 0 0 0 50 0l129.6-74.83a50 50 0 0 0 25-43.31V124.84a50 50 0 0 0-24.99-43.31zm-72.24 136.14l-64.73 64.7c-9.74 9.739-25.53 9.739-35.27 0l-64.73-64.7c-9.739-9.74-9.739-25.53 0-35.27l64.73-64.73c9.74-9.739 25.53-9.739 35.27 0l64.73 64.73c9.739 9.74 9.739 25.53 0 35.27z" fill="#2da44e"/></svg>