<svg xmlns="http://www.w3.org/2000/svg" viewBox="0 0 359.24 399.34"><defs><style>.cls-1{fill:#2da44e;}</style></defs><g id="M_Cristal" data-name="M Cristal"><path class="cls-1" d="M404.07,131.86,274.47,57a50,50,0,0,0-50,0L94.85,131.86a50,50,0,0,0-25,43.31V324.83a50,50,0,0,0,25,43.31L224.46,443a50,50,0,0,0,50,0l129.6-74.83a50,50,0,0,0,25-43.31V175.17A50,50,0,0,0,404.07,131.86ZM331.83,268,267.1,332.7a24.94,24.94,0,0,1-35.27,0L167.1,268a24.94,24.94,0,0,1,0-35.27L231.83,168a24.94,24.94,0,0,1,35.27,0l64.73,64.73A24.94,24.94,0,0,1,331.83,268Z" transform="translate(-69.84 -50.33)"/></g></svg>