<svg xmlns="http://www.w3.org/2000/svg" aria-hidden="false" focusable="false" aria-label="TabCash" role="img" viewBox="0 0 359.24 399.34" xmlns:v="https://vecta.io/nano"><path d="M334.23 81.53L204.63 6.7a50 50 0 0 0-50 0L25.01 81.53a50 50 0 0 0-25 43.31V274.5a50 50 0 0 0 25 43.31l129.6 74.83a50 50 0 0 0 50 0l129.6-74.83a50 50 0 0 0 25-43.31V124.84a50 50 0 0 0-24.98-43.31zm-74.55 154.06a17.66 17.66 0 0 1-8.83 15.3l-62.4 36a17.65 17.65 0 0 1-17.67 0l-62.39-36a17.67 17.67 0 0 1-8.88-15.3v-72.07a17.65 17.65 0 0 1 8.84-15.3l62.39-36a17.65 17.65 0 0 1 17.67 0l62.4 36a17.64 17.64 0 0 1 8.83 15.3z" fill="#2da44e"/></svg>