<svg xmlns="http://www.w3.org/2000/svg" viewBox="0 0 359.24 399.34"><defs><style>.cls-1{fill:#2da44e;}</style></defs><g id="M_Cubo" data-name="M Cubo"><path class="cls-1" d="M404.72,131.94,275.12,57.11a50,50,0,0,0-50,0L95.5,131.94a50,50,0,0,0-25,43.31V324.91a50,50,0,0,0,25,43.31l129.6,74.83a50,50,0,0,0,50,0l129.6-74.83a50,50,0,0,0,25-43.31V175.25A50,50,0,0,0,404.72,131.94ZM330.17,286a17.66,17.66,0,0,1-8.83,15.3l-62.4,36a17.65,17.65,0,0,1-17.67,0l-62.39-36A17.67,17.67,0,0,1,170,286V213.93a17.65,17.65,0,0,1,8.84-15.3l62.39-36a17.65,17.65,0,0,1,17.67,0l62.4,36a17.64,17.64,0,0,1,8.83,15.3Z" transform="translate(-70.49 -50.41)"/></g></svg>