<svg xmlns="http://www.w3.org/2000/svg" aria-hidden="true" focusable="false" role="img" class="octicon octicon-three-bars" viewBox="0 0 16 16" width="24" height="24" fill="#f6f6f6" style="display: inline-block; user-select: none; vertical-align: text-bottom; overflow: visible;"><path d="M1 2.75A.75.75 0 0 1 1.75 2h12.5a.75.75 0 0 1 0 1.5H1.75A.75.75 0 0 1 1 2.75Zm0 5A.75.75 0 0 1 1.75 7h12.5a.75.75 0 0 1 0 1.5H1.75A.75.75 0 0 1 1 7.75ZM1.75 12h12.5a.75.75 0 0 1 0 1.5H1.75a.75.75 0 0 1 0-1.5Z"/></svg>