<svg xmlns="http://www.w3.org/2000/svg" viewBox="0 0 359.24 399.34"><defs><style>.cls-1{fill:#2da44e;}</style></defs><g id="MG_Cristal" data-name="MG Cristal"><g id="Camada_49" data-name="Camada 49"><path class="cls-1" d="M404.61,131.86,275,57a50,50,0,0,0-50,0L95.39,131.86a50,50,0,0,0-25,43.31V324.83a50,50,0,0,0,25,43.31L225,443a50,50,0,0,0,50,0l129.6-74.83a50,50,0,0,0,25-43.31V175.17A50,50,0,0,0,404.61,131.86ZM341.24,267.64l-73.6,73.6a25,25,0,0,1-35.28,0l-73.6-73.6a25,25,0,0,1,0-35.28l73.6-73.6a25,25,0,0,1,35.28,0l73.6,73.6A25,25,0,0,1,341.24,267.64Z" transform="translate(-70.38 -50.33)"/></g></g></svg>