<svg xmlns="http://www.w3.org/2000/svg" viewBox="0 0 359.24 399.34"><defs><style>.cls-1{fill:#2da44e;}</style></defs><g id="MG_Cubo" data-name="MG Cubo"><g id="Camada_37" data-name="Camada 37"><path class="cls-1" d="M404.61,131.86,275,57a50,50,0,0,0-50,0L95.39,131.86a50,50,0,0,0-25,43.31V324.83a50,50,0,0,0,25,43.31L225,443a50,50,0,0,0,50,0l129.6-74.83a50,50,0,0,0,25-43.31V175.17A50,50,0,0,0,404.61,131.86Zm-67.18,155a24.08,24.08,0,0,1-12,20.84L261.64,344.5a24.07,24.07,0,0,1-24.07,0l-63.76-36.81a24.08,24.08,0,0,1-12-20.84V213.22a24.07,24.07,0,0,1,12-20.84l63.76-36.81a24.07,24.07,0,0,1,24.07,0l63.76,36.81a24.07,24.07,0,0,1,12,20.84Z" transform="translate(-70.38 -50.33)"/></g></g></svg>