<svg xmlns="http://www.w3.org/2000/svg" viewBox="0 0 359.24 399.34"><defs><style>.cls-1{fill:#2da44e;}</style></defs><g id="P_Cristal" data-name="P Cristal"><g id="Camada_42" data-name="Camada 42"><path class="cls-1" d="M404.3,131.64,274.69,56.81a50,50,0,0,0-50,0L95.07,131.64a50,50,0,0,0-25,43.31V324.6a50,50,0,0,0,25,43.32l129.61,74.83a50,50,0,0,0,50,0L404.3,367.92a50,50,0,0,0,25-43.32V175A50,50,0,0,0,404.3,131.64ZM316.92,267.41,267.32,317a24.94,24.94,0,0,1-35.27,0l-49.61-49.61a24.94,24.94,0,0,1,0-35.27l49.61-49.6a24.94,24.94,0,0,1,35.27,0l49.6,49.6A24.94,24.94,0,0,1,316.92,267.41Z" transform="translate(-70.07 -50.11)"/></g></g></svg>