<svg xmlns="http://www.w3.org/2000/svg" viewBox="0 0 359.24 399.34"><defs><style>.cls-1{fill:#2da44e;}</style></defs><g id="P_Cubo" data-name="P Cubo"><path class="cls-1" d="M404.56,131.94,275,57.11a50,50,0,0,0-50,0L95.33,131.94a50,50,0,0,0-25,43.31V324.91a50,50,0,0,0,25,43.31l129.61,74.83a50,50,0,0,0,50,0l129.61-74.83a50,50,0,0,0,25-43.31V175.25A50,50,0,0,0,404.56,131.94ZM316.93,278.56a17.66,17.66,0,0,1-8.83,15.3l-49.32,28.47a17.65,17.65,0,0,1-17.67,0l-49.32-28.47a17.68,17.68,0,0,1-8.83-15.3V221.61a17.69,17.69,0,0,1,8.83-15.31l49.32-28.47a17.65,17.65,0,0,1,17.67,0L308.1,206.3a17.67,17.67,0,0,1,8.83,15.31Z" transform="translate(-70.33 -50.41)"/></g></svg>