<svg xmlns="http://www.w3.org/2000/svg" viewBox="0 0 383.71 368.85"><defs><style>.cls-1{fill:#2da44e;}</style></defs><g id="Camada_29" data-name="Camada 29"><g id="Camada_83" data-name="Camada 83"><path class="cls-1" d="M425.76,184.4,274.08,74.2a40.16,40.16,0,0,0-47.22,0L75.18,184.4a40.16,40.16,0,0,0-14.59,44.91l57.93,178.32a40.16,40.16,0,0,0,38.2,27.75h187.5a40.16,40.16,0,0,0,38.2-27.75l57.93-178.32A40.16,40.16,0,0,0,425.76,184.4Zm-175.21,156a75,75,0,1,1,75-75A75,75,0,0,1,250.55,340.45Z" transform="translate(-58.62 -66.53)"/></g></g></svg>