<?xml version="1.0" encoding="utf-8"?>
<!-- Generator: Adobe Illustrator 24.3.0, SVG Export Plug-In . SVG Version: 6.00 Build 0)  -->
<svg version="1.1" xmlns="http://www.w3.org/2000/svg" xmlns:xlink="http://www.w3.org/1999/xlink" x="0px" y="0px"
	 viewBox="0 0 500 500" style="enable-background:new 0 0 500 500;" xml:space="preserve">
<style type="text/css">
	.st0{display:none;}
	.st1{display:inline;fill:#00A651;}
	.st2{display:inline;fill:#2DA44E;}
	.st3{fill:#0969DA;}
	.st4{display:inline;fill:#0969DA;}
</style>
<g id="Camada_1" class="st0">
</g>
<g id="Camada_50" class="st0">
	<path class="st1" d="M59.7,169.9l40.7-76.5c6.3-11.8,17.4-18.9,29.4-18.9h240.8c11.9,0,22.9,7.1,29.2,18.7l41.4,76.6
		c8.4,15.5,6.5,35.6-4.5,48.7L271.5,414c-11.7,13.9-31.3,13.9-43-0.1L64.3,218.3C53.3,205.3,51.4,185.3,59.7,169.9z"/>
</g>
<g id="Camada_3" class="st0">
</g>
<g id="G_Cubo" class="st0">
	<path class="st2" d="M405.1,131.3L275.5,56.5c-15.5-8.9-34.5-8.9-50,0L95.9,131.3c-15.5,8.9-25,25.4-25,43.3v149.7
		c0,17.9,9.5,34.4,25,43.3l129.6,74.8c15.5,8.9,34.5,8.9,50,0l129.6-74.8c15.5-8.9,25-25.4,25-43.3V174.6
		C430.1,156.7,420.6,140.2,405.1,131.3z"/>
</g>
<g id="Camada_13" class="st0">
</g>
<g id="Camada_7" class="st0">
</g>
<g id="cristal_2" class="st0">
	<path class="st2" d="M439.6,274.6l-164,164c-13.9,13.9-36.4,13.9-50.3,0l-164-164c-13.9-13.9-13.9-36.4,0-50.3l164-164
		c13.9-13.9,36.4-13.9,50.3,0l164,164C453.5,238.2,453.5,260.7,439.6,274.6z"/>
</g>
<g id="Camada_9" class="st0">
</g>
<g id="Camada_5">
	<circle class="st3" cx="250.5" cy="249.4" r="200"/>
</g>
<g id="Camada_11" class="st0">
</g>
<g id="Camada_51" class="st0">
	<path class="st4" d="M399.5,449.4H101.4c-28.1,0-50.9-22.8-50.9-50.9V100.4c0-28.1,22.8-50.9,50.9-50.9h298.1
		c28.1,0,50.9,22.8,50.9,50.9v298.1C450.5,426.6,427.7,449.4,399.5,449.4z"/>
</g>
<g id="Camada_29" class="st0">
	<path class="st2" d="M432.7,177.3L275,57.8c-14.6-11.1-34.5-11.1-49.1,0L68.2,177.3C53.6,188.4,47.5,208,53.1,226l60.2,193.4
		c5.6,17.9,21.6,30.1,39.7,30.1h194.9c18.1,0,34.1-12.2,39.7-30.1L447.9,226C453.5,208,447.3,188.4,432.7,177.3z"/>
</g>
</svg>
