<?xml version="1.0" encoding="utf-8"?>
<!-- Generator: Adobe Illustrator 24.3.0, SVG Export Plug-In . SVG Version: 6.00 Build 0)  -->
<svg version="1.1" xmlns="http://www.w3.org/2000/svg" xmlns:xlink="http://www.w3.org/1999/xlink" x="0px" y="0px"
	 viewBox="0 0 500 500" style="enable-background:new 0 0 500 500;" xml:space="preserve">
<style type="text/css">
	.st0{display:none;}
	.st1{display:inline;fill:#00A651;}
	.st2{display:inline;fill:#2DA44E;}
	.st3{display:inline;fill:#0969DA;}
	.st4{fill:#0969DA;}
</style>
<g id="Camada_1" class="st0">
</g>
<g id="Camada_50" class="st0">
	<path class="st1" d="M59.6,168.4l40.7-76.5c6.3-11.8,17.4-18.9,29.4-18.9h240.8c11.9,0,22.9,7.1,29.2,18.7l41.4,76.6
		c8.4,15.5,6.5,35.6-4.5,48.7L271.5,412.5c-11.7,13.9-31.3,13.9-43-0.1L64.3,216.8C53.3,203.7,51.4,183.8,59.6,168.4z"/>
</g>
<g id="Camada_3" class="st0">
</g>
<g id="G_Cubo" class="st0">
	<path class="st2" d="M405.1,131.5L275.5,56.7c-15.5-8.9-34.5-8.9-50,0L95.9,131.5c-15.5,8.9-25,25.4-25,43.3v149.7
		c0,17.9,9.5,34.4,25,43.3l129.6,74.8c15.5,8.9,34.5,8.9,50,0l129.6-74.8c15.5-8.9,25-25.4,25-43.3V174.8
		C430.1,157,420.6,140.5,405.1,131.5z"/>
</g>
<g id="Camada_13" class="st0">
</g>
<g id="Camada_7" class="st0">
</g>
<g id="cristal_2" class="st0">
	<path class="st2" d="M439.6,274.8l-164,164c-13.9,13.9-36.4,13.9-50.3,0l-164-164c-13.9-13.9-13.9-36.4,0-50.3l164-164
		c13.9-13.9,36.4-13.9,50.3,0l164,164C453.5,238.4,453.5,260.9,439.6,274.8z"/>
</g>
<g id="Camada_9" class="st0">
</g>
<g id="Camada_5" class="st0">
	<circle class="st3" cx="250.5" cy="249.7" r="200"/>
</g>
<g id="Camada_11" class="st0">
</g>
<g id="Camada_51">
	<path class="st4" d="M361.2,449.7H139.8c-49.3,0-89.3-40-89.3-89.3V139c0-49.3,40-89.3,89.3-89.3h221.4c49.3,0,89.3,40,89.3,89.3
		v221.4C450.5,409.7,410.5,449.7,361.2,449.7z"/>
</g>
<g id="Camada_29" class="st0">
	<path class="st2" d="M432.7,177.8L275,58.3c-14.6-11.1-34.5-11.1-49.1,0L68.2,177.8c-14.6,11.1-20.8,30.8-15.2,48.7l60.2,193.4
		c5.6,17.9,21.6,30.1,39.7,30.1h194.9c18.1,0,34.1-12.2,39.7-30.1l60.2-193.4C453.5,208.6,447.3,188.9,432.7,177.8z"/>
</g>
</svg>
